<svg width="24" height="22" viewBox="0 0 24 22" fill="none" xmlns="http://www.w3.org/2000/svg">
<path d="M17.831 19.8499H6.05096C5.73327 19.8502 5.42467 19.744 5.17449 19.5482C4.92432 19.3524 4.74702 19.0784 4.67096 18.7699L2.02096 8.15992C1.9951 8.05663 1.99314 7.9488 2.01524 7.84464C2.03734 7.74048 2.08291 7.64274 2.14848 7.55884C2.21405 7.47495 2.2979 7.40712 2.39363 7.36052C2.48937 7.31392 2.59448 7.28977 2.70096 7.28992H21.181C21.2874 7.28977 21.3925 7.31392 21.4883 7.36052C21.584 7.40712 21.6679 7.47495 21.7334 7.55884C21.799 7.64274 21.8446 7.74048 21.8667 7.84464C21.8888 7.9488 21.8868 8.05663 21.861 8.15992L19.211 18.7699C19.1349 19.0784 18.9576 19.3524 18.7074 19.5482C18.4572 19.744 18.1486 19.8502 17.831 19.8499V19.8499Z" stroke="white" stroke-width="2.5" stroke-linecap="round" stroke-linejoin="round"/>
<path d="M9.74082 2.15002L6.84082 7.29002" stroke="white" stroke-width="2.5" stroke-linecap="round" stroke-linejoin="round"/>
<path d="M13.821 2.15002L16.731 7.29002" stroke="white" stroke-width="2.5" stroke-linecap="round" stroke-linejoin="round"/>
</svg>
