<svg width="19" height="17" viewBox="0 0 19 17" fill="none" xmlns="http://www.w3.org/2000/svg">
<path fill-rule="evenodd" clip-rule="evenodd" d="M9.5 1.88889C9.1774 1.51946 8.80133 1.19688 8.38642 0.927823C7.46953 0.333235 6.36303 0 5.225 0C2.299 0 0 2.24196 0 5.09537C0 6.10924 0.242955 7.07201 0.659137 7.98796C1.94997 10.8314 4.90747 13.231 7.45322 15.2965C8.18614 15.8911 8.88493 16.4581 9.5 17C10.1151 16.4581 10.8139 15.8911 11.5468 15.2965C14.0925 13.231 17.0499 10.8315 18.3408 7.98811C18.757 7.07212 19 6.10929 19 5.09537C19 2.24196 16.701 0 13.775 0C12.637 0 11.5305 0.333235 10.6136 0.927823C10.1987 1.19688 9.8226 1.51946 9.5 1.88889ZM9.5 14.516C9.80665 14.2634 10.1201 14.0086 10.4331 13.7542C10.6982 13.5387 10.9629 13.3235 11.2229 13.1102C12.2636 12.256 13.2823 11.3881 14.1844 10.4786C15.3007 9.35315 16.1303 8.26986 16.6135 7.20062C16.9321 6.49466 17.1 5.79542 17.1 5.09537C17.1 3.31929 15.6863 1.88889 13.775 1.88889C12.646 1.88889 11.5924 2.37408 10.9348 3.12716L9.5 4.77024L8.06522 3.12716C7.40761 2.37408 6.35401 1.88889 5.225 1.88889C3.31368 1.88889 1.9 3.31929 1.9 5.09537C1.9 5.79542 2.0679 6.49466 2.38653 7.20062C2.86966 8.26986 3.69932 9.35315 4.81564 10.4786C5.7177 11.3881 6.7364 12.256 7.77711 13.1102C8.03708 13.3235 8.30184 13.5387 8.56694 13.7542C8.8799 14.0086 9.19336 14.2634 9.5 14.516Z" fill="#292116"/>
</svg>
