<svg width="14" height="14" viewBox="0 0 14 14" fill="none" xmlns="http://www.w3.org/2000/svg">
<path d="M13.3635 0.416595H8.27257C7.92112 0.416595 7.6362 0.693039 7.6362 1.03403C7.6362 1.37502 7.92112 1.65146 8.27257 1.65146H11.8272L5.27717 8.00658C5.0287 8.24766 5.0287 8.63861 5.27717 8.87974C5.4014 9.00027 5.56426 9.06057 5.72712 9.06057C5.88997 9.06057 6.05286 9.00027 6.17706 8.87971L12.7271 2.52462V5.97345C12.7271 6.31444 13.0121 6.59088 13.3635 6.59088C13.715 6.59088 13.9999 6.31444 13.9999 5.97345V1.03403C13.9999 0.693039 13.7149 0.416595 13.3635 0.416595Z" fill="#292116"/>
<path d="M10.8182 6.59087C10.4667 6.59087 10.1818 6.86732 10.1818 7.20831V12.7652H1.27272V4.12116H7.00001C7.35146 4.12116 7.63638 3.84472 7.63638 3.50373C7.63638 3.16274 7.35146 2.88632 7.00001 2.88632H0.636372C0.284922 2.88632 0 3.16277 0 3.50376V13.3826C0 13.7236 0.284922 14 0.636372 14H10.8182C11.1697 14 11.4546 13.7236 11.4546 13.3826V7.20831C11.4546 6.86732 11.1696 6.59087 10.8182 6.59087Z" fill="#292116"/>
</svg>
