<svg version="1.1" xmlns="http://www.w3.org/2000/svg" xmlns:xlink="http://www.w3.org/1999/xlink" width="12" height="12" viewBox="0 0 12 12">
<path id="Фигура-16" d="M11.852,11.367 C11.822,11.426 11.780,11.476 11.741,11.528 C11.704,11.575 11.670,11.623 11.625,11.663 C11.544,11.736 11.453,11.811 11.353,11.859 C11.164,11.949 10.978,11.999 10.769,11.999 C10.725,11.999 10.683,11.999 10.640,11.999 C10.465,11.999 10.288,11.999 10.112,11.999 C9.492,11.999 8.873,11.999 8.253,11.999 C7.475,11.999 6.696,11.999 5.918,11.999 C5.215,11.999 4.512,11.999 3.809,11.999 C3.421,11.999 3.032,11.999 2.643,11.999 C2.623,11.999 2.602,11.999 2.581,11.999 C2.045,11.990 1.603,11.641 1.436,11.137 C1.387,10.990 1.386,10.833 1.386,10.679 C1.386,10.544 1.386,10.408 1.386,10.273 C1.386,9.682 1.386,9.091 1.386,8.500 C1.386,8.315 1.461,8.151 1.584,8.018 C1.707,7.885 1.889,7.827 2.064,7.819 C2.234,7.811 2.426,7.900 2.544,8.018 C2.667,8.142 2.743,8.326 2.743,8.500 C2.743,8.597 2.743,8.695 2.743,8.791 C2.743,9.213 2.743,9.632 2.743,10.053 C2.743,10.234 2.743,10.414 2.743,10.594 C2.743,10.609 2.743,10.626 2.742,10.642 C3.020,10.642 3.299,10.641 3.576,10.641 C4.260,10.641 4.945,10.641 5.629,10.641 C6.429,10.641 7.227,10.641 8.026,10.641 C8.684,10.641 9.342,10.641 10.001,10.641 C10.197,10.641 10.394,10.641 10.591,10.641 C10.609,10.641 10.627,10.642 10.645,10.642 C10.645,10.568 10.645,10.494 10.645,10.419 C10.645,10.158 10.645,9.895 10.645,9.633 C10.645,9.266 10.645,8.899 10.645,8.532 C10.645,8.096 10.645,7.660 10.645,7.224 C10.645,6.755 10.645,6.288 10.645,5.820 C10.645,5.354 10.645,4.888 10.645,4.422 C10.645,4.000 10.645,3.578 10.645,3.155 C10.645,2.810 10.645,2.465 10.645,2.121 C10.645,1.890 10.645,1.659 10.645,1.429 C10.645,1.405 10.646,1.382 10.646,1.359 C10.366,1.358 10.084,1.359 9.804,1.359 C9.120,1.359 8.435,1.359 7.751,1.359 C6.951,1.359 6.153,1.359 5.354,1.359 C4.696,1.359 4.037,1.359 3.379,1.359 C3.182,1.359 2.985,1.359 2.789,1.359 C2.773,1.359 2.757,1.359 2.741,1.359 C2.742,1.388 2.743,1.416 2.743,1.445 C2.743,1.861 2.743,2.280 2.743,2.698 C2.743,2.965 2.743,3.232 2.743,3.499 C2.743,3.683 2.665,3.848 2.547,3.984 C2.424,4.117 2.242,4.174 2.067,4.183 C1.897,4.191 1.704,4.102 1.586,3.984 C1.464,3.860 1.388,3.676 1.388,3.502 C1.388,3.304 1.388,3.105 1.388,2.908 C1.388,2.526 1.388,2.145 1.388,1.764 C1.388,1.489 1.369,1.205 1.418,0.933 C1.438,0.818 1.487,0.702 1.543,0.602 C1.597,0.504 1.669,0.410 1.752,0.335 C1.897,0.202 2.011,0.140 2.190,0.069 C2.297,0.027 2.412,0.013 2.527,0.004 C2.562,0.001 2.596,0.001 2.631,0.001 C2.766,0.001 2.899,0.001 3.033,0.001 C3.598,0.001 4.164,0.001 4.728,0.001 C5.495,0.001 6.262,0.001 7.028,0.001 C7.763,0.001 8.496,0.001 9.229,0.001 C9.693,0.001 10.157,0.001 10.621,0.001 C10.787,0.001 10.939,-0.000 11.106,0.040 C11.625,0.167 11.992,0.656 12.000,1.187 C12.000,1.204 12.000,1.221 12.000,1.238 C12.000,1.578 12.000,1.920 12.000,2.261 C12.000,2.909 12.000,3.556 12.000,4.205 C12.000,4.985 12.000,5.767 12.000,6.547 C12.000,7.287 12.000,8.028 12.000,8.767 C12.000,9.293 12.000,9.819 12.000,10.344 C12.000,10.472 12.000,10.602 12.000,10.730 C12.000,10.750 12.000,10.771 12.000,10.791 C11.997,11.002 11.946,11.181 11.852,11.367 zM3.429,5.321 C4.138,5.321 4.848,5.321 5.556,5.321 C5.840,5.321 6.124,5.321 6.408,5.321 C6.216,5.128 6.024,4.935 5.831,4.742 C5.537,4.447 5.241,4.150 4.947,3.854 C4.816,3.723 4.755,3.553 4.749,3.375 C4.740,3.192 4.829,3.022 4.947,2.892 C5.062,2.768 5.260,2.694 5.427,2.694 C5.602,2.694 5.784,2.769 5.907,2.892 C6.015,3.000 6.123,3.109 6.231,3.217 C6.701,3.689 7.171,4.161 7.642,4.633 C7.936,4.929 8.232,5.225 8.526,5.520 C8.593,5.582 8.640,5.660 8.672,5.744 C8.696,5.803 8.711,5.866 8.717,5.930 C8.721,5.954 8.723,5.978 8.724,6.002 C8.728,6.088 8.707,6.180 8.671,6.265 C8.639,6.345 8.591,6.420 8.527,6.484 C8.420,6.592 8.311,6.701 8.204,6.808 C7.733,7.281 7.263,7.752 6.792,8.225 C6.498,8.521 6.202,8.817 5.907,9.113 C5.777,9.242 5.608,9.303 5.427,9.312 C5.245,9.320 5.076,9.231 4.947,9.113 C4.822,8.997 4.749,8.798 4.749,8.631 C4.749,8.455 4.823,8.272 4.947,8.149 C5.054,8.041 5.163,7.932 5.270,7.825 C5.649,7.444 6.028,7.063 6.407,6.683 C6.037,6.683 5.666,6.683 5.295,6.683 C4.587,6.683 3.877,6.683 3.169,6.683 C2.583,6.683 1.998,6.683 1.411,6.683 C1.167,6.683 0.924,6.683 0.680,6.683 C0.496,6.683 0.334,6.606 0.199,6.484 C0.066,6.360 0.009,6.178 0.001,6.002 C-0.007,5.832 0.081,5.639 0.199,5.520 C0.323,5.398 0.506,5.321 0.680,5.321 C0.684,5.321 0.688,5.321 0.692,5.321 C0.991,5.317 1.290,5.321 1.589,5.321 C2.202,5.321 2.816,5.321 3.429,5.321 z" fill="#FFFFFF" />
</svg>
