<svg version="1.1" xmlns="http://www.w3.org/2000/svg" xmlns:xlink="http://www.w3.org/1999/xlink" width="12" height="12" viewBox="0 0 12 12">
<path id="Фигура-16-копия" d="M11.800,6.479 C11.677,6.602 11.494,6.678 11.320,6.678 C11.316,6.678 11.312,6.678 11.308,6.678 C11.009,6.682 10.709,6.678 10.411,6.678 C9.797,6.678 9.184,6.678 8.570,6.678 C7.862,6.678 7.152,6.678 6.444,6.678 C6.159,6.678 5.876,6.678 5.591,6.678 C5.784,6.871 5.976,7.064 6.168,7.257 C6.463,7.552 6.759,7.849 7.053,8.145 C7.183,8.276 7.244,8.446 7.251,8.624 C7.259,8.807 7.171,8.977 7.053,9.107 C6.938,9.232 6.740,9.305 6.573,9.305 C6.398,9.305 6.216,9.231 6.092,9.107 C5.985,8.999 5.876,8.890 5.769,8.783 C5.298,8.310 4.829,7.839 4.358,7.366 C4.064,7.071 3.768,6.775 3.474,6.479 C3.407,6.417 3.360,6.340 3.328,6.256 C3.304,6.196 3.289,6.133 3.282,6.069 C3.279,6.045 3.277,6.022 3.276,5.997 C3.272,5.912 3.293,5.820 3.329,5.735 C3.361,5.654 3.409,5.579 3.473,5.515 C3.580,5.408 3.689,5.299 3.796,5.191 C4.267,4.719 4.736,4.247 5.207,3.775 C5.502,3.479 5.798,3.182 6.092,2.886 C6.222,2.757 6.392,2.696 6.573,2.688 C6.754,2.679 6.924,2.768 7.053,2.886 C7.178,3.002 7.251,3.201 7.251,3.369 C7.251,3.544 7.177,3.727 7.053,3.851 C6.946,3.958 6.837,4.067 6.730,4.175 C6.351,4.556 5.972,4.936 5.593,5.316 C5.963,5.316 6.334,5.316 6.704,5.316 C7.413,5.316 8.122,5.316 8.831,5.316 C9.417,5.316 10.002,5.316 10.589,5.316 C10.833,5.316 11.076,5.316 11.320,5.316 C11.503,5.316 11.666,5.394 11.800,5.515 C11.934,5.639 11.990,5.822 11.999,5.997 C12.007,6.168 11.918,6.361 11.800,6.479 zM9.936,4.180 C9.766,4.188 9.573,4.100 9.455,3.982 C9.333,3.857 9.257,3.674 9.257,3.499 C9.257,3.403 9.257,3.305 9.257,3.208 C9.257,2.787 9.257,2.367 9.257,1.947 C9.257,1.766 9.257,1.586 9.257,1.406 C9.257,1.390 9.257,1.374 9.258,1.358 C8.980,1.358 8.701,1.358 8.424,1.358 C7.740,1.358 7.055,1.358 6.370,1.358 C5.571,1.358 4.773,1.358 3.974,1.358 C3.315,1.358 2.657,1.358 1.999,1.358 C1.802,1.358 1.605,1.358 1.409,1.358 C1.391,1.358 1.373,1.358 1.354,1.358 C1.354,1.432 1.354,1.506 1.354,1.580 C1.354,1.842 1.354,2.105 1.354,2.366 C1.354,2.734 1.354,3.101 1.354,3.468 C1.354,3.904 1.354,4.340 1.354,4.775 C1.354,5.244 1.354,5.711 1.354,6.180 C1.354,6.646 1.354,7.112 1.354,7.577 C1.354,7.999 1.354,8.422 1.354,8.844 C1.354,9.190 1.354,9.534 1.354,9.879 C1.354,10.109 1.354,10.341 1.354,10.571 C1.354,10.594 1.354,10.617 1.354,10.641 C1.634,10.641 1.915,10.640 2.196,10.640 C2.880,10.640 3.565,10.640 4.249,10.640 C5.049,10.640 5.847,10.640 6.646,10.640 C7.304,10.640 7.962,10.640 8.621,10.640 C8.817,10.640 9.014,10.640 9.211,10.640 C9.227,10.640 9.242,10.640 9.258,10.641 C9.258,10.612 9.257,10.583 9.257,10.555 C9.257,10.138 9.257,9.720 9.257,9.302 C9.257,9.035 9.257,8.768 9.257,8.501 C9.257,8.317 9.334,8.152 9.453,8.016 C9.576,7.882 9.758,7.825 9.933,7.817 C10.103,7.809 10.295,7.897 10.413,8.016 C10.535,8.140 10.612,8.324 10.612,8.498 C10.612,8.696 10.612,8.894 10.612,9.092 C10.612,9.473 10.612,9.855 10.612,10.236 C10.612,10.511 10.631,10.794 10.582,11.067 C10.561,11.181 10.512,11.297 10.457,11.398 C10.403,11.496 10.331,11.590 10.248,11.664 C10.103,11.797 9.989,11.859 9.810,11.930 C9.702,11.973 9.588,11.986 9.473,11.995 C9.438,11.998 9.404,11.998 9.369,11.998 C9.234,11.998 9.101,11.998 8.967,11.998 C8.402,11.998 7.836,11.998 7.272,11.998 C6.505,11.998 5.738,11.998 4.971,11.998 C4.237,11.998 3.504,11.998 2.771,11.998 C2.307,11.998 1.843,11.998 1.379,11.998 C1.213,11.998 1.061,12.000 0.894,11.959 C0.374,11.832 0.008,11.343 -0.000,10.812 C-0.000,10.795 -0.000,10.778 -0.000,10.761 C-0.000,10.421 -0.000,10.079 -0.000,9.739 C-0.000,9.090 -0.000,8.443 -0.000,7.795 C-0.000,7.015 -0.000,6.233 -0.000,5.453 C-0.000,4.713 -0.000,3.972 -0.000,3.232 C-0.000,2.707 -0.000,2.181 -0.000,1.655 C-0.000,1.527 -0.000,1.398 -0.000,1.269 C-0.000,1.249 -0.000,1.229 -0.000,1.208 C0.003,0.998 0.054,0.819 0.148,0.633 C0.178,0.574 0.220,0.523 0.259,0.472 C0.296,0.424 0.330,0.376 0.374,0.337 C0.456,0.263 0.547,0.189 0.647,0.141 C0.836,0.051 1.022,0.000 1.231,0.000 C1.274,0.000 1.316,0.000 1.360,0.000 C1.535,0.000 1.711,0.000 1.888,0.000 C2.508,0.000 3.127,0.000 3.747,0.000 C4.525,0.000 5.304,0.000 6.081,0.000 C6.784,0.000 7.487,0.000 8.190,0.000 C8.579,0.000 8.968,0.000 9.356,0.000 C9.377,0.000 9.398,0.000 9.419,0.000 C9.955,0.010 10.397,0.358 10.564,0.863 C10.613,1.010 10.614,1.166 10.614,1.320 C10.614,1.455 10.614,1.591 10.614,1.726 C10.614,2.317 10.614,2.908 10.614,3.499 C10.614,3.685 10.538,3.848 10.416,3.982 C10.293,4.115 10.111,4.172 9.936,4.180 z" fill="#333333" />
</svg>
