<svg version="1.1" xmlns="http://www.w3.org/2000/svg" xmlns:xlink="http://www.w3.org/1999/xlink" width="12" height="9" viewBox="0 0 12 9">
<path id="Фигура-13-копия" d="M11.994,7.905 C11.994,8.066 11.938,8.226 11.905,8.395 C10.651,7.082 9.421,5.793 8.168,4.482 C9.402,3.212 10.647,1.930 11.893,0.648 C11.968,0.772 11.996,0.944 11.996,1.121 C11.998,3.382 12.000,5.644 11.994,7.905 zM6.665,5.198 C6.255,5.631 5.768,5.631 5.355,5.199 C3.790,3.560 2.224,1.922 0.657,0.285 C0.617,0.243 0.562,0.216 0.514,0.182 C0.521,0.157 0.529,0.132 0.538,0.108 C0.707,0.070 0.878,0.002 1.048,0.002 C3.706,-0.006 6.364,-0.004 9.023,-0.004 C9.663,-0.004 10.304,-0.011 10.944,0.002 C11.115,0.005 11.285,0.069 11.457,0.106 C11.457,0.122 11.457,0.138 11.457,0.154 C11.425,0.189 11.392,0.226 11.360,0.261 C9.794,1.907 8.231,3.553 6.665,5.198 zM0.086,8.358 C0.062,8.240 0.006,8.090 0.004,7.939 C-0.000,5.646 -0.000,3.352 0.004,1.058 C0.005,0.910 0.062,0.761 0.095,0.599 C1.356,1.916 2.588,3.203 3.832,4.502 C2.587,5.783 1.340,7.068 0.086,8.358 zM4.925,5.627 C5.584,6.316 6.438,6.315 7.095,5.627 C7.305,5.407 7.517,5.189 7.718,4.979 C8.959,6.279 10.197,7.577 11.460,8.900 C11.285,8.936 11.110,9.004 10.935,9.004 C8.965,9.012 6.995,9.009 5.025,9.009 C3.715,9.009 2.402,9.008 1.091,9.010 C0.895,9.010 0.712,8.969 0.534,8.858 C1.790,7.564 3.043,6.275 4.308,4.972 C4.489,5.164 4.706,5.397 4.925,5.627 z" fill="#B3B3B3" />
</svg>
