<svg version="1.1" xmlns="http://www.w3.org/2000/svg" xmlns:xlink="http://www.w3.org/1999/xlink" width="12" height="15" viewBox="0 0 12 15">
<path id="Фигура-14" d="M5.986,14.983 C4.651,13.443 3.330,11.963 2.060,10.440 C1.326,9.558 0.749,8.564 0.470,7.437 C-0.027,5.435 0.266,3.575 1.628,1.965 C2.475,0.960 3.597,0.400 4.889,0.191 C6.262,-0.032 7.592,0.110 8.835,0.762 C10.353,1.559 11.255,2.830 11.610,4.490 C11.981,6.227 11.602,7.828 10.682,9.324 C10.033,10.382 9.227,11.319 8.403,12.243 C7.625,13.116 6.843,13.986 6.063,14.859 C6.045,14.879 6.033,14.905 5.986,14.983 zM5.992,7.848 C7.295,7.854 8.362,6.800 8.367,5.505 C8.372,4.211 7.320,3.141 6.036,3.134 C4.706,3.126 3.633,4.169 3.629,5.476 C3.625,6.786 4.677,7.843 5.992,7.848 z" fill="#B3B3B3" />
</svg>
