<svg width="19" height="13" viewBox="0 0 19 13" fill="none" xmlns="http://www.w3.org/2000/svg">
<g clip-path="url(#clip0)">
<path d="M5.80872 3.66833C6.81507 3.66833 7.63087 2.84748 7.63087 1.8349C7.63087 0.822321 6.81507 0.00146484 5.80872 0.00146484C4.80238 0.00146484 3.98657 0.822321 3.98657 1.8349C3.98657 2.84748 4.80238 3.66833 5.80872 3.66833Z" fill="#4D4D4D"/>
<path d="M13.2084 3.66833C14.2147 3.66833 15.0305 2.84748 15.0305 1.8349C15.0305 0.822321 14.2147 0.00146484 13.2084 0.00146484C12.202 0.00146484 11.3862 0.822321 11.3862 1.8349C11.3862 2.84748 12.202 3.66833 13.2084 3.66833Z" fill="#4D4D4D"/>
<path d="M18.8716 10.7779L16.6645 6.97328C16.3908 6.50847 15.8005 6.34492 15.33 6.62037C14.868 6.89582 14.7055 7.48975 14.9792 7.95456L15.3043 8.50545C13.6875 9.98597 11.6258 10.7951 9.41012 10.7951C7.26289 10.7951 5.24398 10.0204 3.64425 8.61735L4.02921 7.94595C4.30296 7.48114 4.14042 6.8786 3.67846 6.61176C3.21651 6.33632 2.61768 6.49986 2.34393 6.96468L0.136815 10.7693C-0.136936 11.2341 0.0256038 11.8366 0.487558 12.1035C0.641543 12.1895 0.812637 12.2326 0.975177 12.2326C1.30881 12.2326 1.63389 12.0604 1.81354 11.7505L2.51502 10.5455C4.4655 12.1379 6.86937 12.9987 9.41012 12.9987C11.9765 12.9987 14.466 12.0776 16.425 10.4422L17.1949 11.7592C17.3746 12.069 17.6996 12.2412 18.0333 12.2412C18.1958 12.2412 18.3669 12.1981 18.5209 12.1121C18.9828 11.8366 19.1368 11.2427 18.8716 10.7779Z" fill="#4D4D4D"/>
</g>
<defs>
<clipPath id="clip0">
<rect width="19" height="13" fill="white"/>
</clipPath>
</defs>
</svg>
