<svg width="23" height="22" viewBox="0 0 23 22" fill="none" xmlns="http://www.w3.org/2000/svg">
<path d="M13.9272 14.0816C14.2129 14.4568 14.4857 14.815 14.7629 15.1774C15.2916 15.8596 15.8331 16.5376 16.3576 17.2283C16.5878 17.5353 16.8479 17.8423 16.7584 18.2858C16.6646 18.7292 16.4045 19.0277 15.9781 19.1471C15.5432 19.2665 15.1466 19.1727 14.8396 18.8145C14.0977 17.9447 13.3558 17.0706 12.6139 16.1965C12.4988 16.0643 12.3837 15.9321 12.2344 15.7615C11.9828 16.043 11.7441 16.3073 11.5096 16.5802C10.8742 17.3093 10.2347 18.0385 9.60786 18.7761C9.2966 19.1428 8.90006 19.275 8.45661 19.1556C7.99611 19.0362 7.7147 18.7122 7.63795 18.2303C7.57825 17.8636 7.77439 17.5865 7.97906 17.3221C8.43103 16.7422 8.89153 16.1709 9.35203 15.5953C9.68888 15.1731 10.0257 14.751 10.3626 14.3289C10.418 14.2564 10.4692 14.1796 10.5459 14.0773C10.337 13.9835 10.1536 13.9025 9.97456 13.8172C9.23264 13.4718 8.48646 13.135 7.75307 12.7768C7.27552 12.5423 7.05806 12.133 7.12202 11.6682C7.19024 11.1693 7.53988 10.7728 8.06434 10.7088C8.29459 10.679 8.55042 10.7771 8.7764 10.8666C9.26675 11.0627 9.73578 11.3271 10.2347 11.4934C11.9658 12.0733 13.6415 11.8857 15.2618 11.0798C15.4707 10.9775 15.6754 10.8666 15.8886 10.7771C16.3704 10.5724 16.9076 10.7557 17.1891 11.212C17.479 11.681 17.4193 12.2822 16.9716 12.5892C16.5452 12.8792 16.0676 13.0966 15.5986 13.3226C15.1125 13.5571 14.6137 13.7618 14.1191 13.9792C14.0636 13.992 14.0125 14.0304 13.9272 14.0816Z" fill="#4D4D4D"/>
<path d="M12.2346 10.0221C10.0601 10.0648 8.27349 8.25689 8.26496 6.08658C8.25217 3.8992 10.0132 2.08705 12.2091 2.09132C14.4519 2.09984 16.183 3.79687 16.1958 6.03115C16.2128 8.28248 14.4945 10.0093 12.2346 10.0221ZM12.2218 8.08634C13.3305 8.0906 14.2642 7.17813 14.2685 6.08231C14.2728 4.96091 13.3518 4.02712 12.2389 4.02712C11.1388 4.02712 10.2093 4.95238 10.205 6.0482C10.205 7.15255 11.1218 8.08207 12.2218 8.08634Z" fill="#4D4D4D"/>
</svg>
