<svg version="1.1" xmlns="http://www.w3.org/2000/svg" xmlns:xlink="http://www.w3.org/1999/xlink" width="12" height="12" viewBox="0 0 12 12">
<path id="Фигура-12-копия" d="M9.666,12.006 C8.508,11.959 7.550,11.685 6.628,11.272 C5.384,10.714 4.291,9.933 3.316,8.984 C2.222,7.919 1.324,6.715 0.706,5.312 C0.313,4.423 0.056,3.500 0.002,2.524 C-0.023,2.052 0.143,1.660 0.451,1.316 C0.761,0.968 1.135,0.700 1.542,0.479 C1.829,0.324 2.129,0.189 2.427,0.055 C2.625,-0.035 2.754,0.008 2.881,0.188 C3.479,1.034 4.075,1.880 4.671,2.728 C4.846,2.977 4.808,3.239 4.571,3.435 C4.293,3.665 4.013,3.892 3.734,4.121 C3.447,4.355 3.381,4.642 3.565,4.968 C3.795,5.373 4.030,5.774 4.280,6.167 C4.691,6.815 5.229,7.342 5.877,7.751 C6.265,7.997 6.664,8.228 7.065,8.453 C7.341,8.608 7.643,8.539 7.846,8.294 C8.079,8.012 8.309,7.727 8.540,7.443 C8.759,7.177 9.006,7.143 9.288,7.341 C10.119,7.928 10.949,8.514 11.779,9.101 C11.992,9.251 12.022,9.359 11.923,9.599 C11.689,10.168 11.413,10.714 11.014,11.187 C10.869,11.361 10.702,11.522 10.526,11.665 C10.237,11.899 9.902,12.022 9.666,12.006 z" fill="#B3B3B3" />
</svg>
