<svg width="20" height="22" viewBox="0 0 20 22" fill="none" xmlns="http://www.w3.org/2000/svg">
<path d="M2.57812 0H1.28906V15.5547H0V19.4219H1.28906V22H2.57812V19.4219H3.86719V15.5547H2.57812V0ZM2.57812 18.1328H1.28906V16.8438H2.57812V18.1328Z" fill="white"/>
<path d="M19.3789 15.5547H18.0898V0H16.8008V15.5547H15.5117V19.4219H16.8008V22H18.0898V19.4219H19.3789V15.5547ZM18.0898 18.1328H16.8008V16.8438H18.0898V18.1328Z" fill="white"/>
<path d="M12.9336 0H11.6445V9.53906H10.3555V13.4062H11.6445V22H12.9336V13.4062H14.2227V9.53906H12.9336V0ZM12.9336 12.1172H11.6445V10.8281H12.9336V12.1172Z" fill="white"/>
<path d="M7.73438 0H6.44531V2.30536H5.15625V6.17255H6.44531V22H7.73438V6.17255H9.02344V2.30536H7.73438V0ZM7.73438 4.88348H6.44531V3.59442H7.73438V4.88348Z" fill="white"/>
</svg>
