<svg width="12" height="12" viewBox="0 0 12 12" fill="none" xmlns="http://www.w3.org/2000/svg">
<path d="M9.39777 5.66135L3.36027 0.945724C3.34449 0.933304 3.32553 0.925585 3.30557 0.923454C3.2856 0.921324 3.26544 0.924867 3.2474 0.933679C3.22936 0.94249 3.21417 0.956211 3.20357 0.973267C3.19298 0.990322 3.18741 1.01002 3.1875 1.0301V2.06537C3.1875 2.13099 3.2183 2.19394 3.2692 2.23412L8.09063 5.99885L3.2692 9.76358C3.21697 9.80376 3.1875 9.86671 3.1875 9.93233V10.9676C3.1875 11.0573 3.29063 11.1069 3.36027 11.052L9.39777 6.33635C9.44908 6.29632 9.4906 6.24512 9.51915 6.18664C9.5477 6.12815 9.56254 6.06393 9.56254 5.99885C9.56254 5.93377 9.5477 5.86954 9.51915 5.81106C9.4906 5.75258 9.44908 5.70138 9.39777 5.66135Z" fill="#333333"/>
</svg>
