<svg width="12" height="12" viewBox="0 0 12 12" fill="none" xmlns="http://www.w3.org/2000/svg">
<path d="M8.83938 2.06548V1.03021C8.83938 0.940479 8.73625 0.890925 8.66661 0.945836L2.62911 5.66146C2.57781 5.70135 2.5363 5.75244 2.50775 5.81081C2.4792 5.86918 2.46436 5.93331 2.46436 5.99829C2.46436 6.06327 2.4792 6.1274 2.50775 6.18577C2.5363 6.24415 2.57781 6.29523 2.62911 6.33512L8.66661 11.0507C8.73759 11.1057 8.83938 11.0561 8.83938 10.9664V9.9311C8.83938 9.86548 8.80857 9.80253 8.75768 9.76235L3.93625 5.99896L8.75768 2.23423C8.80857 2.19405 8.83938 2.1311 8.83938 2.06548Z" fill="#333333"/>
</svg>
