<svg width="18" height="17" viewBox="0 0 18 17" fill="none" xmlns="http://www.w3.org/2000/svg">
<g clip-path="url(#clip0)">
<path d="M12.708 17C11.9187 17 11.1367 16.8348 10.4312 16.5205C9.92958 16.5982 9.49809 16.6348 9.08858 16.6348C4.32916 16.6348 0.457031 13.022 0.457031 8.58132C0.457031 8.1489 0.502487 7.69897 0.595459 7.21286C0.20517 6.51287 0 5.73156 0 4.93728C0 2.21488 2.37442 0 5.29308 0C6.20137 0 7.08879 0.216599 7.87596 0.628525C8.23453 0.584946 8.62688 0.564453 9.08858 0.564453C11.3884 0.564453 13.5474 1.39622 15.1677 2.90631C16.7901 4.41848 17.6836 6.43401 17.6836 8.58158C17.6836 9.15057 17.6425 9.63319 17.5553 10.0795C17.8506 10.7024 18 11.3684 18 12.0627C18 14.7851 15.626 17 12.708 17ZM10.6533 15.1341L10.8693 15.2426C11.4283 15.5234 12.0641 15.6719 12.708 15.6719C14.8506 15.6719 16.5938 14.0528 16.5938 12.0627C16.5938 11.4984 16.4588 10.9608 16.1923 10.4648L16.0781 10.2519L16.1334 10.0189C16.2316 9.60595 16.2773 9.14928 16.2773 8.58158C16.2773 4.89331 13.0524 1.89258 9.08858 1.89258C8.59364 1.89258 8.20061 1.91852 7.85138 1.97442L7.58894 2.01631L7.3629 1.88363C6.74382 1.52021 6.02806 1.32812 5.29308 1.32812C3.14992 1.32812 1.40625 2.94717 1.40625 4.93728C1.40625 5.57929 1.59027 6.2095 1.9384 6.75982L2.07861 6.98161L2.02341 7.23465C1.9156 7.72738 1.86328 8.16784 1.86328 8.58132C1.86328 12.2897 5.10452 15.3066 9.08858 15.3066C9.47351 15.3066 9.89429 15.265 10.4128 15.1756L10.6533 15.1341ZM13.5352 10.3216C13.5352 9.84408 13.4353 9.43345 13.2362 9.10116C13.0371 8.77029 12.757 8.49326 12.4048 8.27705C12.0585 8.06538 11.6334 7.88406 11.1425 7.73568C10.6572 7.59029 10.1084 7.45644 9.51141 7.33595C9.039 7.23348 8.69527 7.15372 8.49037 7.10067C8.29015 7.04892 8.09102 6.97551 7.89684 6.88446C7.70966 6.79665 7.5623 6.69095 7.45628 6.57162C7.35741 6.45775 7.27734 6.32623 7.27734 6.16852C7.27734 5.9108 7.45889 5.69369 7.7672 5.50446C8.08621 5.30757 8.51605 5.22612 9.04477 5.22612C9.61345 5.22612 10.0291 5.29862 10.2766 5.47527C10.5322 5.65659 10.7548 5.91547 10.9384 6.24426C11.0976 6.50107 11.2409 6.68018 11.379 6.79484C11.5274 6.91753 11.7418 6.97266 12.0149 6.97266C12.3153 6.97266 12.5708 6.88044 12.7722 6.68343C12.9735 6.48745 13.1133 6.26229 13.1133 6.01482C13.1133 5.75815 12.9971 5.49252 12.844 5.2256C12.692 4.96088 12.4519 4.70667 12.1268 4.46803C11.8052 4.23145 11.3945 4.04015 10.9091 3.89838C10.4252 3.75636 9.84554 3.68555 9.18636 3.68555C8.36307 3.68555 7.63426 3.79229 7.02301 4.00513C6.40242 4.22017 5.91971 4.53547 5.59108 4.93845C5.25792 5.34467 5.0625 5.81638 5.0625 6.33998C5.0625 6.88939 5.24954 7.35527 5.56622 7.7279C5.87851 8.09391 6.30437 8.38651 6.83446 8.59818C7.35136 8.80428 8.00121 8.9865 8.76682 9.14072C9.32973 9.25239 9.78525 9.35822 10.121 9.45615C10.4413 9.54966 10.7074 9.68701 10.9089 9.86366C11.0996 10.0315 11.2041 10.2465 11.2041 10.5201C11.2041 10.8659 11.0135 11.1495 10.6462 11.3848C10.2706 11.6256 9.7711 11.7207 9.16122 11.7207C8.7171 11.7207 8.35689 11.6876 8.08951 11.5682C7.82336 11.4511 7.6149 11.2989 7.47112 11.1201C7.31937 10.932 7.17696 10.6959 7.04622 10.4142C6.92949 10.1567 6.78488 9.95601 6.61404 9.82112C6.4362 9.68027 6.21744 9.5957 5.9642 9.5957C5.6559 9.5957 5.39676 9.69933 5.19406 9.87728C4.9904 10.0573 4.88672 10.2778 4.88672 10.5312C4.88672 10.9376 5.04561 11.3587 5.36009 11.7821C5.66867 12.2019 6.07832 12.543 6.57408 12.7942C7.26649 13.1399 8.15556 13.3145 9.21533 13.3145C10.0973 13.3145 10.8734 13.1862 11.5197 12.9342C12.1733 12.6798 12.6771 12.3207 13.0187 11.867C13.3614 11.4121 13.5345 10.8922 13.5352 10.3216Z" fill="#4D4D4D"/>
</g>
<defs>
<clipPath id="clip0">
<rect width="18" height="17" fill="white"/>
</clipPath>
</defs>
</svg>
