<svg width="13" height="12" viewBox="0 0 13 12" fill="none" xmlns="http://www.w3.org/2000/svg">
<path fill-rule="evenodd" clip-rule="evenodd" d="M6.08569 1.39415C6.12175 1.27983 6.1933 1.17997 6.28998 1.10909C6.38665 1.03821 6.5034 1 6.62327 1C6.74314 1 6.85989 1.03821 6.95656 1.10909C7.05324 1.17997 7.12479 1.27983 7.16085 1.39415L8.13161 4.37952H11.2631C11.3873 4.37482 11.5096 4.4109 11.6113 4.48225C11.713 4.5536 11.7886 4.65628 11.8264 4.77462C11.8643 4.89295 11.8624 5.02043 11.821 5.13758C11.7796 5.25472 11.701 5.35509 11.5971 5.42335L9.05541 7.26572L10.0262 10.2563C10.0646 10.3702 10.0655 10.4934 10.0289 10.6079C9.99234 10.7224 9.92009 10.8222 9.82274 10.8928C9.7254 10.9633 9.60805 11.0009 9.48784 11C9.36764 10.9991 9.25086 10.9598 9.15457 10.8878L6.60761 9.02458L4.06587 10.8722C3.96958 10.9441 3.85281 10.9834 3.7326 10.9843C3.61239 10.9852 3.49505 10.9477 3.3977 10.8771C3.30035 10.8066 3.22811 10.7068 3.19151 10.5923C3.15491 10.4778 3.15588 10.3546 3.19427 10.2407L4.16504 7.25006L1.6233 5.40769C1.51948 5.33944 1.44086 5.23907 1.39946 5.12192C1.35806 5.00478 1.35614 4.8773 1.39401 4.75896C1.43188 4.64062 1.50744 4.53794 1.60917 4.46659C1.71089 4.39525 1.83317 4.35916 1.95733 4.36386H5.08883L6.08569 1.39415Z" stroke="#EBEBEB" stroke-width="1.5" stroke-linecap="round" stroke-linejoin="round"/>
</svg>
