<svg version="1.1" xmlns="http://www.w3.org/2000/svg" xmlns:xlink="http://www.w3.org/1999/xlink" width="15" height="15" viewBox="0 0 15 15">
<path id="Фигура-1863" d="M7.495,14.998 C3.343,14.995 -0.000,11.639 0.002,7.477 C0.005,3.357 3.370,0.002 7.499,0.001 C11.641,-0.000 15.000,3.363 14.997,7.508 C14.994,11.650 11.638,15.000 7.495,14.998 zM7.951,5.409 C7.951,4.986 7.952,4.562 7.950,4.139 C7.949,3.929 7.838,3.764 7.657,3.696 C7.354,3.583 7.050,3.806 7.049,4.145 C7.047,4.988 7.048,5.831 7.050,6.674 C7.050,6.739 7.035,6.783 6.980,6.825 C6.673,7.062 6.565,7.447 6.705,7.809 C6.731,7.878 6.730,7.921 6.673,7.976 C6.336,8.306 6.004,8.641 5.670,8.975 C5.432,9.213 5.192,9.447 4.959,9.690 C4.708,9.951 4.832,10.367 5.182,10.445 C5.365,10.486 5.510,10.412 5.639,10.283 C6.254,9.664 6.871,9.048 7.490,8.433 C7.529,8.393 7.586,8.358 7.640,8.347 C7.993,8.272 8.233,8.067 8.325,7.717 C8.417,7.366 8.310,7.066 8.032,6.835 C7.969,6.783 7.948,6.734 7.949,6.656 C7.953,6.241 7.951,5.825 7.951,5.409 z" fill="#B4B4B4" />
</svg>
