<svg width="17" height="14" viewBox="0 0 17 14" fill="none" xmlns="http://www.w3.org/2000/svg">
<path d="M16.3247 1.80799C15.7328 2.06766 15.102 2.23977 14.4444 2.32334C15.1209 1.91942 15.6372 1.28468 15.88 0.519608C15.2492 0.895676 14.5528 1.16131 13.8106 1.30955C13.2117 0.671827 12.3581 0.276855 11.4269 0.276855C9.62016 0.276855 8.16563 1.74332 8.16563 3.54109C8.16563 3.79976 8.18752 4.04848 8.24124 4.28526C5.52818 4.15294 3.12752 2.85262 1.5148 0.871799C1.23325 1.36029 1.0681 1.91942 1.0681 2.52133C1.0681 3.65152 1.65011 4.65337 2.51765 5.23339C1.99334 5.22344 1.47898 5.07123 1.04322 4.83146C1.04322 4.84141 1.04322 4.85434 1.04322 4.86727C1.04322 6.45313 2.17441 7.77036 3.65779 8.0738C3.39216 8.14643 3.10264 8.18125 2.80219 8.18125C2.59326 8.18125 2.38234 8.16931 2.18436 8.12554C2.60719 9.4179 3.80702 10.368 5.2337 10.3989C4.1234 11.2674 2.71364 11.7907 1.18748 11.7907C0.919857 11.7907 0.663175 11.7788 0.406494 11.7459C1.85207 12.6781 3.56527 13.2104 5.41278 13.2104C11.4179 13.2104 14.7011 8.23597 14.7011 3.92412C14.7011 3.77986 14.6961 3.64058 14.6891 3.50229C15.3368 3.04265 15.881 2.4686 16.3247 1.80799Z" fill="#4D4D4D"/>
</svg>
