<svg version="1.1" xmlns="http://www.w3.org/2000/svg" xmlns:xlink="http://www.w3.org/1999/xlink" width="12" height="12" viewBox="0 0 12 12">
<path d="M8.787,5.857 C9.260,5.221 9.517,4.444 9.517,3.643 C9.517,1.634 7.939,-0.000 6.000,-0.000 C4.060,-0.000 2.483,1.634 2.483,3.643 C2.483,5.651 4.060,7.286 6.000,7.286 C6.621,7.286 7.232,7.112 7.772,6.785 C9.363,7.446 10.496,8.963 10.718,10.714 C10.718,10.714 1.282,10.714 1.282,10.714 C1.433,9.521 1.993,8.436 2.875,7.639 C3.133,7.407 3.160,7.000 2.935,6.733 C2.711,6.465 2.318,6.437 2.060,6.670 C0.751,7.851 -0.000,9.560 -0.000,11.357 C-0.000,11.712 0.278,12.000 0.620,12.000 C0.620,12.000 11.379,12.000 11.379,12.000 C11.722,12.000 12.000,11.712 12.000,11.357 C12.000,9.051 10.748,6.921 8.787,5.857 zM6.000,1.285 C7.255,1.285 8.276,2.343 8.276,3.643 C8.276,4.942 7.255,6.000 6.000,6.000 C4.745,6.000 3.724,4.942 3.724,3.643 C3.724,2.343 4.745,1.285 6.000,1.285 z" fill="#333333" />
</svg>
