<svg width="20" height="19" viewBox="0 0 20 19" fill="none" xmlns="http://www.w3.org/2000/svg">
<g clip-path="url(#clip0)">
<path d="M19.2959 10.9988C19.8926 6.22745 19.0092 3.21516 17.4159 1.8527L17.4167 1.85191C14.8451 -0.474797 6.16007 -0.819172 3.0834 1.95641C1.70173 3.31412 1.21507 5.30674 1.16173 7.77358C1.1084 10.2412 1.04507 14.8637 5.57923 16.1177H5.5834L5.57923 18.0328C5.57923 18.0328 5.5484 18.8086 6.07007 18.9646C6.66673 19.1482 6.93673 18.788 8.79257 16.6822C11.8959 16.9379 14.2792 16.3521 14.5501 16.2666C15.1767 16.0671 18.7226 15.6214 19.2959 10.9988ZM9.0984 15.3348C9.0984 15.3348 7.13423 17.6615 6.5234 18.2655C6.3234 18.4619 6.10423 18.4437 6.10757 18.0542C6.10757 17.7984 6.12257 14.8748 6.12257 14.8748C2.2784 13.8282 2.50507 9.89208 2.54673 7.83295C2.5884 5.77304 2.98507 4.08599 4.15507 2.94995C6.85423 0.545661 14.4684 1.0832 16.4084 2.81537C18.7801 4.81274 17.9359 10.4557 17.9409 10.6481C17.4534 14.5067 14.5801 14.7513 14.0517 14.9184C13.8259 14.9896 11.7301 15.5018 9.0984 15.3348Z" fill="#4D4D4D"/>
<path d="M10.185 3.40186C9.86413 3.40186 9.86413 3.87686 10.185 3.88081C12.6741 3.89902 14.7241 5.54727 14.7466 8.57065C14.7466 8.88969 15.2383 8.88573 15.2341 8.56669H15.2333C15.2066 5.30898 12.9683 3.42006 10.185 3.40186Z" fill="#4D4D4D"/>
<path d="M13.4592 8.06949C13.4517 8.38457 13.9425 8.39961 13.9467 8.08057C13.9875 6.28428 12.8217 4.80465 10.6309 4.6487C10.31 4.62653 10.2767 5.10549 10.5967 5.12765C12.4967 5.26461 13.4975 6.49644 13.4592 8.06949Z" fill="#4D4D4D"/>
<path d="M12.9343 10.1129C12.5226 9.8865 12.1034 10.0274 11.9301 10.2499L11.5676 10.6956C11.3834 10.922 11.0393 10.8919 11.0393 10.8919C8.5276 10.261 7.85593 7.76404 7.85593 7.76404C7.85593 7.76404 7.8251 7.426 8.0551 7.24471L8.50843 6.88846C8.7351 6.71746 8.87843 6.30579 8.6476 5.90125C8.03093 4.84279 7.61676 4.47783 7.40593 4.19758C7.18426 3.93396 6.85093 3.87458 6.50426 4.05271H6.49676C5.77593 4.45329 4.98676 5.203 5.23926 5.97487C5.6701 6.78871 6.46176 9.383 8.9851 11.3432C10.1709 12.2702 12.0476 13.2202 12.8443 13.4395L12.8518 13.4506C13.6368 13.6992 14.4001 12.9202 14.8076 12.2148V12.2092C14.9884 11.868 14.9284 11.545 14.6643 11.3337C14.1959 10.8998 13.4893 10.4209 12.9343 10.1129Z" fill="#4D4D4D"/>
<path d="M10.9741 6.41599C11.775 6.46032 12.1633 6.85774 12.205 7.67395C12.22 7.99299 12.7075 7.97082 12.6925 7.65178C12.6391 6.5862 12.0541 5.99245 11.0008 5.93703C10.68 5.91882 10.65 6.39778 10.9741 6.41599Z" fill="#4D4D4D"/>
</g>
<defs>
<clipPath id="clip0">
<rect width="20" height="19" fill="white"/>
</clipPath>
</defs>
</svg>
