<svg width="18" height="11" viewBox="0 0 18 11" fill="none" xmlns="http://www.w3.org/2000/svg">
<path d="M17.4147 9.43311C17.3675 9.35403 17.0754 8.71922 15.6696 7.41445C14.1979 6.04817 14.3955 6.27003 16.1682 3.9076C17.2478 2.46884 17.6794 1.59021 17.5443 1.21459C17.4158 0.856547 16.6218 0.951 16.6218 0.951L13.9815 0.966376C13.9815 0.966376 13.786 0.940017 13.6399 1.02678C13.4982 1.11245 13.4071 1.31014 13.4071 1.31014C13.4071 1.31014 12.9886 2.42381 12.4307 3.37054C11.2544 5.36833 10.7833 5.47377 10.5911 5.34966C10.1441 5.06081 10.2561 4.18767 10.2561 3.56823C10.2561 1.63194 10.5493 0.824696 9.68388 0.616021C9.39613 0.546829 9.18525 0.5007 8.4505 0.493012C7.50816 0.483128 6.70971 0.496307 6.25831 0.717064C5.95738 0.864235 5.72564 1.19262 5.86732 1.2113C6.04194 1.23436 6.43733 1.31783 6.6471 1.60339C6.91838 1.97131 6.9085 2.79943 6.9085 2.79943C6.9085 2.79943 7.06445 5.07838 6.54496 5.36174C6.18802 5.55614 5.69928 5.15966 4.65041 3.34637C4.11335 2.41832 3.70698 1.39142 3.70698 1.39142C3.70698 1.39142 3.629 1.20031 3.48952 1.09817C3.32038 0.974064 3.08315 0.934526 3.08315 0.934526L0.572455 0.949902C0.572455 0.949902 0.195741 0.960885 0.0573563 1.12453C-0.0656523 1.2706 0.0474717 1.57153 0.0474717 1.57153C0.0474717 1.57153 2.01341 6.17008 4.23855 8.48858C6.28027 10.6138 8.59767 10.4743 8.59767 10.4743H9.64764C9.64764 10.4743 9.96504 10.4391 10.1265 10.2645C10.2759 10.1042 10.2704 9.80323 10.2704 9.80323C10.2704 9.80323 10.2495 8.39412 10.9041 8.18655C11.5488 7.98227 12.3769 9.54843 13.2544 10.1514C13.9178 10.6072 14.4219 10.5072 14.4219 10.5072L16.769 10.4743C16.769 10.4743 17.9968 10.3985 17.4147 9.43311Z" fill="#4D4D4D"/>
</svg>
