<svg width="18" height="17" viewBox="0 0 18 17" fill="none" xmlns="http://www.w3.org/2000/svg">
<path d="M9.00225 0H8.99775C4.03538 0 0 3.81225 0 8.5C0 10.3594 0.6345 12.0828 1.71337 13.4821L0.59175 16.6398L4.05113 15.5954C5.47425 16.4858 7.17188 17 9.00225 17C13.9646 17 18 13.1867 18 8.5C18 3.81331 13.9646 0 9.00225 0Z" fill="#4D4D4D"/>
<path d="M14.2391 12.0031C14.022 12.5821 13.1602 13.0624 12.4729 13.2026C12.0026 13.2972 11.3884 13.3726 9.32062 12.563C6.67575 11.5281 4.9725 8.98982 4.83975 8.82513C4.71262 8.66044 3.771 7.48107 3.771 6.26132C3.771 5.04157 4.42687 4.44763 4.69125 4.19263C4.90837 3.98332 5.26725 3.8877 5.6115 3.8877C5.72287 3.8877 5.823 3.89301 5.913 3.89726C6.17737 3.90788 6.31012 3.92276 6.4845 4.31695C6.70162 4.81101 7.23037 6.03076 7.29337 6.15613C7.3575 6.28151 7.42162 6.45151 7.33162 6.6162C7.24725 6.7862 7.173 6.86163 7.04025 7.00613C6.9075 7.15063 6.7815 7.26113 6.64875 7.41626C6.52725 7.55119 6.39 7.6957 6.543 7.94538C6.696 8.18976 7.22475 9.00469 8.00325 9.65919C9.00787 10.5039 9.82237 10.7738 10.1137 10.8885C10.3309 10.9735 10.5896 10.9533 10.7482 10.7939C10.9496 10.5889 11.1982 10.2489 11.4514 9.9142C11.6314 9.67407 11.8586 9.64432 12.0971 9.72932C12.3401 9.80901 13.626 10.4093 13.8904 10.5336C14.1547 10.659 14.3291 10.7185 14.3932 10.8237C14.4562 10.9289 14.4562 11.4229 14.2391 12.0031Z" fill="#FAFAFA"/>
</svg>
