<svg width="503" height="679" viewBox="0 0 503 679" fill="none" xmlns="http://www.w3.org/2000/svg">
<path d="M291 325L315 319.5C381.833 389.667 511 530.4 493 532C470.5 534 433.5 554.5 428.5 557C423.5 559.5 391.5 567.5 322.5 563.5C253.5 559.5 246.5 496 253.5 483.5C260.5 471 268 382 270.5 352C272.5 328 285 324 291 325Z" fill="#EF8B59"/>
<path d="M457.496 497C485.662 522.667 542.596 574.6 544.996 577L584.996 0C565.496 3.16667 523.896 11.9 513.496 21.5C500.496 33.5 442.496 36.5 341.496 42.5C240.496 48.5 264.496 189 261.496 211C258.496 233 336.996 375.5 349.996 393C360.396 407 425.996 468.167 457.496 497Z" fill="#E5DEDD"/>
<path d="M1 571.65C9.83333 582.65 28.2 605.65 31 609.65H36C153 663.316 384.2 736.45 373 599.65C359 428.65 265 339.15 257.5 332.65C250 326.15 242 324.15 241 332.65C240.2 339.45 187.333 395.15 161 422.15L142.5 461.65C139 467.316 119.6 484.65 70 508.65C20.4 532.65 3.33333 560.65 1 571.65Z" stroke="#EF8B59"/>
<path d="M323.183 369.907C323.352 369.371 323.929 369.08 324.461 369.262L325.671 369.676C325.784 369.715 325.903 369.733 326.023 369.73L327.709 369.683C328.096 369.672 328.455 369.886 328.63 370.232L329.319 371.597L330.109 373.161C330.294 373.529 330.235 373.973 329.96 374.28L327.885 376.59C327.673 376.825 327.362 376.947 327.046 376.917L324.866 376.71C324.717 376.696 324.573 376.648 324.444 376.571L322.424 375.351C322.263 375.254 322.133 375.114 322.048 374.946L321.488 373.838C321.314 373.492 321.355 373.076 321.593 372.771L322.632 371.442C322.706 371.348 322.762 371.241 322.798 371.127L323.183 369.907Z" fill="#A58966"/>
<path d="M253.936 358.812C254.33 358.187 255.037 357.83 255.773 357.884L259.975 358.191C261.481 358.301 262.327 359.975 261.521 361.252L259.273 364.816C258.879 365.44 258.173 365.797 257.436 365.743L253.234 365.437C251.728 365.327 250.883 363.652 251.688 362.375L253.936 358.812Z" fill="#A58966"/>
<path d="M253.438 324.034C253.793 323.606 254.31 323.345 254.865 323.314L259.588 323.047C260.758 322.981 261.734 323.93 261.7 325.101L261.633 327.452C261.612 328.186 261.19 328.849 260.535 329.18L254.792 332.08C254.136 332.411 253.353 332.356 252.75 331.938L250.818 330.596C249.855 329.928 249.671 328.579 250.419 327.677L253.438 324.034Z" fill="#A58966"/>
<path d="M237.22 463.29C237.286 462.738 237.579 462.238 238.028 461.911L242.482 458.663C243.429 457.973 244.764 458.241 245.371 459.243L246.887 461.746C247.268 462.373 247.274 463.159 246.903 463.793L243.205 470.109C242.834 470.742 242.145 471.122 241.412 471.097L238.487 470.999C237.316 470.96 236.429 469.927 236.568 468.764L237.22 463.29Z" fill="#A58966"/>
<ellipse cx="199.502" cy="340.795" rx="7" ry="5" transform="rotate(-26.7897 199.502 340.795)" fill="#A58966"/>
<ellipse cx="276.546" cy="429.042" rx="5" ry="3.5" transform="rotate(-26.7897 276.546 429.042)" fill="#A58966"/>
<ellipse cx="247.191" cy="413.057" rx="3" ry="2" transform="rotate(-26.7897 247.191 413.057)" fill="#A58966"/>
<ellipse cx="303.613" cy="431.619" rx="3" ry="2" transform="rotate(-26.7897 303.613 431.619)" fill="#A58966"/>
<path d="M214.556 377.461C215.663 375.327 218.256 374.444 220.436 375.461L220.914 375.684C223.934 377.092 225.425 380.533 224.389 383.7C223.76 385.62 221.83 386.8 219.834 386.484L217.481 386.111C214.111 385.577 212.254 381.899 213.825 378.87L214.556 377.461Z" fill="#A58966"/>
<path d="M229.32 261.959C230.669 259.358 233.828 258.283 236.483 259.522L237.083 259.801C239.547 260.95 240.765 263.76 239.919 266.344C239.098 268.852 236.577 270.393 233.97 269.98L233.317 269.876C229.632 269.292 227.602 265.271 229.32 261.959Z" fill="#A58966"/>
<path d="M204.928 241.582C205.726 240.007 207.636 239.358 209.229 240.119L209.59 240.292C211.026 240.979 211.738 242.619 211.257 244.137C210.777 245.655 209.252 246.587 207.683 246.323L207.288 246.257C205.126 245.893 203.937 243.538 204.928 241.582Z" fill="#A58966"/>
<path d="M279.744 332.487C280.473 331.032 282.236 330.432 283.701 331.141L284.014 331.293C285.954 332.232 286.915 334.449 286.275 336.507C285.869 337.813 284.558 338.615 283.211 338.381L282.072 338.184C279.697 337.773 278.392 335.188 279.471 333.033L279.744 332.487Z" fill="#A58966"/>
</svg>
