<svg width="448" height="458" viewBox="0 0 448 458" fill="none" xmlns="http://www.w3.org/2000/svg">
<path d="M16.5 425.186C-9.1 431.186 -38.5 449.353 -50 457.686L-88 274.187L-22.5 145.686C90.5 110.52 312.7 54.1865 297.5 110.186C278.5 180.186 227.5 233.686 203 257.186C178.5 280.686 102 342.686 87.5 364.686C73 386.686 48.5 417.686 16.5 425.186Z" fill="#BBCED5"/>
<path d="M180 204.186C156 213.386 45.6667 283.02 -6.5 316.686V-19.3135C150.5 -25.4802 461.1 -36.9135 447.5 -33.3135C430.5 -28.8135 382 45.6865 345.5 86.1865C309 126.686 210 192.686 180 204.186Z" fill="#6692A5"/>
<path d="M250.419 318.733C250.812 318.331 251.458 318.331 251.85 318.733L252.744 319.648C252.827 319.734 252.926 319.804 253.034 319.855L254.56 320.573C254.911 320.738 255.135 321.09 255.135 321.478V323.007V324.759C255.135 325.171 254.882 325.541 254.498 325.691L251.604 326.817C251.309 326.932 250.977 326.9 250.708 326.731L248.856 325.564C248.729 325.484 248.621 325.377 248.541 325.25L247.288 323.25C247.188 323.091 247.135 322.907 247.135 322.719V321.478C247.135 321.09 247.359 320.738 247.709 320.573L249.236 319.855C249.344 319.804 249.442 319.734 249.526 319.648L250.419 318.733Z" fill="#A58966"/>
<path d="M193.606 277.617C194.239 277.237 195.03 277.237 195.664 277.617L199.276 279.785C200.571 280.562 200.571 282.438 199.276 283.215L195.664 285.383C195.03 285.763 194.239 285.763 193.606 285.383L189.993 283.215C188.698 282.438 188.698 280.562 189.993 279.785L193.606 277.617Z" fill="#A58966"/>
<path d="M208.836 246.348C209.345 246.126 209.924 246.126 210.434 246.348L214.771 248.239C215.845 248.707 216.288 249.994 215.73 251.025L214.61 253.093C214.261 253.738 213.586 254.141 212.852 254.141H206.418C205.684 254.141 205.009 253.738 204.659 253.093L203.539 251.025C202.981 249.994 203.424 248.707 204.499 248.239L208.836 246.348Z" fill="#A58966"/>
<path d="M98.3333 306.408C98.8661 306.567 99.3089 306.94 99.5554 307.438L100.646 309.644C101.166 310.694 100.675 311.964 99.5842 312.392L98.9491 312.641C98.2658 312.909 97.4905 312.782 96.9292 312.309L93.9772 309.82C93.4159 309.347 93.159 308.604 93.3077 307.886L93.446 307.217C93.6835 306.07 94.8521 305.372 95.9751 305.706L98.3333 306.408Z" fill="#A58966"/>
<path d="M131.594 363.348C131.901 362.885 132.388 362.57 132.937 362.481L138.376 361.589C139.533 361.4 140.603 362.24 140.694 363.408L140.92 366.326C140.976 367.058 140.627 367.762 140.011 368.16L133.863 372.132C133.246 372.53 132.461 372.559 131.817 372.206L129.25 370.801C128.222 370.238 127.896 368.916 128.544 367.94L131.594 363.348Z" fill="#A58966"/>
<ellipse cx="153.135" cy="237" rx="7" ry="5" fill="#A58966"/>
<ellipse cx="182.135" cy="350.5" rx="5" ry="3.5" fill="#A58966"/>
<ellipse cx="163.135" cy="323" rx="3" ry="2" fill="#A58966"/>
<ellipse cx="205.135" cy="365" rx="3" ry="2" fill="#A58966"/>
<path d="M150.047 276.516C151.997 275.11 154.71 275.491 156.197 277.38L156.523 277.795C158.584 280.413 158.365 284.157 156.012 286.517C154.585 287.948 152.331 288.131 150.691 286.949L148.759 285.556C145.992 283.56 145.992 279.44 148.759 277.444L150.047 276.516Z" fill="#A58966"/>
<path d="M215.285 180.065C217.661 178.352 220.966 178.816 222.778 181.118L223.187 181.638C224.869 183.775 224.69 186.831 222.77 188.757C220.906 190.626 217.962 190.865 215.821 189.321L215.285 188.935C212.259 186.753 212.259 182.247 215.285 180.065Z" fill="#A58966"/>
<path d="M202.695 150.882C204.117 149.835 206.115 150.116 207.194 151.514L207.438 151.831C208.411 153.092 208.307 154.876 207.194 156.015C206.081 157.154 204.3 157.299 203.017 156.355L202.695 156.118C200.929 154.819 200.929 152.181 202.695 150.882Z" fill="#A58966"/>
<path d="M228.509 265.75C229.815 264.78 231.659 265.039 232.647 266.332L232.858 266.609C234.167 268.321 234.026 270.734 232.527 272.283C231.576 273.265 230.044 273.39 228.947 272.575L228.018 271.885C226.084 270.448 226.084 267.552 228.018 266.115L228.509 265.75Z" fill="#A58966"/>
</svg>
